<?xml version="1.0" standalone="no"?>
<!DOCTYPE svg PUBLIC "-//W3C//DTD SVG 20010904//EN"
 "http://www.w3.org/TR/2001/REC-SVG-20010904/DTD/svg10.dtd">
<svg version="1.0" xmlns="http://www.w3.org/2000/svg"
 width="3000.000000pt" height="3000.000000pt" viewBox="0 0 3000.000000 3000.000000"
 preserveAspectRatio="xMidYMid meet">

<g transform="translate(0.000000,3000.000000) scale(0.100000,-0.100000)"
fill="#7b93db" stroke="none">
<path d="M20135 27188 c-111 -112 -229 -238 -264 -280 -34 -42 -97 -105 -139
-139 -100 -81 -470 -451 -551 -551 -34 -42 -97 -105 -139 -139 -100 -81 -470
-451 -551 -551 -34 -42 -97 -105 -139 -139 -100 -81 -480 -461 -561 -561 -34
-42 -97 -105 -139 -139 -100 -81 -470 -451 -551 -551 -34 -42 -97 -105 -139
-139 -100 -81 -470 -451 -551 -551 -34 -42 -97 -105 -139 -139 -100 -81 -480
-461 -561 -561 -34 -42 -97 -105 -139 -139 -100 -81 -470 -451 -551 -551 -34
-42 -97 -105 -139 -139 -100 -81 -470 -451 -551 -551 -34 -42 -97 -105 -139
-139 -100 -81 -480 -461 -561 -561 -34 -42 -97 -105 -139 -139 -100 -81 -470
-451 -551 -551 -34 -42 -97 -105 -139 -139 -100 -81 -470 -451 -551 -551 -34
-42 -97 -105 -139 -139 -97 -79 -490 -472 -562 -562 -30 -37 -88 -95 -129
-129 -99 -80 -479 -461 -560 -560 -34 -42 -97 -105 -139 -139 -100 -81 -470
-451 -551 -551 -34 -42 -97 -105 -139 -139 -99 -81 -480 -461 -560 -560 -34
-41 -92 -99 -129 -129 -90 -72 -483 -465 -562 -562 -34 -42 -97 -105 -139
-139 -100 -81 -470 -451 -551 -551 -34 -42 -97 -105 -139 -139 -97 -79 -490
-472 -562 -562 -30 -37 -88 -95 -129 -129 -99 -80 -479 -461 -560 -560 -34
-42 -97 -105 -139 -139 -100 -81 -470 -451 -551 -551 -34 -42 -97 -105 -139
-139 -100 -81 -470 -451 -551 -551 -34 -42 -97 -105 -139 -139 -100 -81 -480
-461 -561 -561 -34 -42 -97 -105 -139 -139 -100 -81 -470 -451 -551 -551 -34
-42 -97 -105 -139 -139 -100 -81 -470 -451 -551 -551 -34 -42 -97 -105 -139
-139 -98 -81 -492 -471 -492 -488 0 -35 270 -607 425 -901 657 -1247 1445
-2320 2420 -3295 1136 -1136 2463 -2059 3918 -2726 l108 -50 87 79 c120 110
374 371 450 464 35 42 98 105 140 139 100 81 470 451 551 551 34 42 97 105
139 139 100 81 470 451 551 551 34 42 97 105 139 139 100 81 480 461 561 561
34 42 97 105 139 139 100 81 470 451 551 551 34 42 97 105 139 139 100 81 470
451 551 551 34 42 97 105 139 139 97 79 490 472 562 562 30 37 88 95 129 129
99 80 479 461 560 560 34 42 97 105 139 139 100 81 470 451 551 551 34 42 97
105 139 139 97 79 490 472 562 562 30 37 88 95 129 129 99 80 479 461 560 560
34 42 97 105 139 139 100 81 470 451 551 551 34 42 97 105 139 139 97 79 490
472 562 562 30 37 88 95 129 129 99 80 479 461 560 560 34 42 97 105 139 139
100 81 470 451 551 551 34 42 97 105 139 139 100 81 470 451 551 551 34 42 97
105 139 139 100 81 480 461 561 561 34 42 97 105 139 139 100 81 470 451 551
551 34 42 97 105 139 139 100 81 470 451 551 551 34 42 97 105 139 139 100 81
480 461 561 561 34 42 97 105 139 139 100 81 470 451 551 551 34 42 97 105
139 139 100 81 470 451 551 551 34 42 97 105 139 139 100 81 480 461 561 561
34 42 97 105 139 139 100 81 470 451 551 551 34 42 97 105 139 139 100 81 470
451 551 551 34 42 97 105 139 140 91 75 366 341 464 450 l69 77 -50 108 c-667
1455 -1590 2782 -2726 3918 -975 975 -2048 1763 -3295 2420 -296 156 -866 425
-901 425 -8 0 -104 -91 -214 -202z m-89 -5023 c282 -38 532 -124 792 -271 211
-120 368 -240 566 -434 247 -242 414 -468 551 -745 359 -727 280 -1473 -223
-2105 -96 -120 -1386 -1417 -1467 -1474 -186 -132 -420 -138 -601 -16 -36 24
-543 523 -1305 1287 -1172 1173 -1248 1252 -1277 1314 -44 94 -55 143 -54 239
0 105 26 192 83 281 49 77 1317 1348 1474 1478 140 116 269 199 425 274 196
95 380 150 580 176 108 14 339 12 456 -4z m-5291 -4480 c33 -9 89 -30 125 -47
60 -29 162 -128 1220 -1185 l1155 -1153 760 760 c418 419 780 774 805 791 94
63 233 85 338 54 70 -21 118 -49 175 -104 93 -89 132 -192 125 -331 -3 -74 -9
-99 -37 -156 -31 -65 -94 -130 -1000 -1037 -531 -533 -994 -988 -1027 -1013
-34 -24 -92 -56 -130 -71 -60 -23 -83 -27 -179 -26 -124 0 -184 16 -279 73
-38 23 -447 427 -1343 1324 -1203 1204 -1291 1295 -1320 1356 -40 85 -56 159
-56 246 2 338 343 602 668 519z m-1155 -1876 c533 -48 1027 -289 1454 -707
239 -235 394 -447 531 -727 102 -208 159 -380 201 -605 21 -115 30 -439 15
-566 -53 -449 -233 -843 -566 -1238 -408 -484 -937 -796 -1505 -887 -127 -21
-467 -18 -601 4 -558 93 -1085 403 -1484 872 -296 348 -473 704 -556 1120 -27
139 -38 464 -20 612 73 592 398 1142 940 1593 470 390 1040 580 1591 529z
m-3518 -3240 c133 -28 245 -115 305 -237 35 -71 38 -82 37 -161 -1 -101 -23
-168 -84 -254 -69 -96 -137 -132 -365 -193 -253 -68 -494 -198 -730 -391 -194
-159 -284 -270 -331 -411 -51 -151 -15 -298 102 -416 114 -114 316 -140 494
-63 20 9 182 100 360 203 708 408 730 420 867 475 192 76 316 102 498 102 111
0 160 -5 235 -23 241 -58 439 -178 665 -405 130 -129 218 -250 285 -388 211
-441 140 -943 -203 -1422 -341 -478 -861 -863 -1470 -1091 -311 -117 -443
-123 -602 -29 -76 45 -126 100 -168 184 -29 60 -32 74 -32 161 0 86 3 101 31
160 35 73 105 156 170 201 24 16 109 51 191 78 338 110 563 230 828 440 191
151 326 310 380 446 68 172 10 361 -144 464 -85 57 -115 66 -216 66 -150 -1
-172 -11 -725 -330 -428 -246 -576 -327 -685 -370 -513 -205 -945 -138 -1355
211 -140 119 -228 221 -310 360 -278 470 -225 1029 148 1564 151 216 374 438
610 608 287 206 683 385 1000 452 104 22 143 24 214 9z"/>
<path d="M19495 21179 c-163 -21 -322 -90 -465 -200 -41 -31 -253 -235 -470
-453 l-395 -396 980 -980 980 -980 421 422 c449 450 498 508 563 665 52 128
66 204 66 368 0 154 -7 197 -51 338 -174 553 -765 1098 -1305 1202 -103 19
-240 26 -324 14z"/>
<path d="M13105 14844 c-81 -9 -202 -37 -278 -65 -326 -118 -630 -431 -744
-764 -136 -400 -7 -893 343 -1305 302 -356 673 -591 1044 -661 83 -16 317 -16
397 -1 463 92 878 511 958 971 75 426 -109 894 -510 1296 -273 275 -581 452
-884 509 -85 16 -260 27 -326 20z"/>
</g>
</svg>
